<svg width="31" height="31" viewBox="0 0 31 31" fill="none" xmlns="http://www.w3.org/2000/svg">
<circle cx="15.8" cy="15.5" r="15" fill="white"/>
<path d="M15.8001 0.5C7.51622 0.5 0.800049 7.23599 0.800049 15.5443C0.800049 23.0521 6.2846 29.275 13.4568 30.408V19.894H9.64643V15.5443H13.4568V12.2297C13.4568 8.4562 15.6965 6.37537 19.1214 6.37537C20.7625 6.37537 22.4817 6.66877 22.4817 6.66877V10.3685H20.5855C18.7253 10.3685 18.1433 11.5301 18.1433 12.7202V15.5413H22.3002L21.6356 19.891H18.1433V30.405C25.3155 29.278 30.8 23.0536 30.8 15.5443C30.8 7.23599 24.0839 0.5 15.8001 0.5Z" fill="#3B5998"/>
</svg>
