<svg width="27" height="24" viewBox="0 0 27 24" fill="none" xmlns="http://www.w3.org/2000/svg">
<path d="M26.2662 4.80139C25.8604 3.86181 25.2753 3.01038 24.5437 2.29475C23.8115 1.57698 22.9482 1.00659 22.0007 0.614572C21.0183 0.206465 19.9645 -0.00242728 18.9007 2.12788e-05C17.4082 2.12788e-05 15.9521 0.408713 14.6866 1.18069C14.3839 1.36535 14.0963 1.56819 13.8239 1.78918C13.5514 1.56819 13.2638 1.36535 12.9611 1.18069C11.6956 0.408713 10.2395 2.12788e-05 8.747 2.12788e-05C7.67229 2.12788e-05 6.63088 0.205881 5.647 0.614572C4.69641 1.00813 3.83967 1.57424 3.10403 2.29475C2.3714 3.00957 1.78616 3.86121 1.38147 4.80139C0.960669 5.77922 0.745728 6.8176 0.745728 7.88625C0.745728 8.89436 0.951587 9.94485 1.36028 11.0135C1.70237 11.9066 2.1928 12.8329 2.81946 13.7684C3.81243 15.2488 5.17776 16.7927 6.87307 18.3578C9.68245 20.9523 12.4646 22.7445 12.5826 22.8171L13.3001 23.2773C13.618 23.4801 14.0267 23.4801 14.3446 23.2773L15.062 22.8171C15.1801 22.7414 17.9592 20.9523 20.7716 18.3578C22.4669 16.7927 23.8323 15.2488 24.8252 13.7684C25.4519 12.8329 25.9453 11.9066 26.2844 11.0135C26.6931 9.94485 26.899 8.89436 26.899 7.88625C26.902 6.8176 26.687 5.77922 26.2662 4.80139Z" fill="black"/>
</svg>
