<svg width="173" height="54" viewBox="0 0 173 54" fill="none" xmlns="http://www.w3.org/2000/svg">
<g filter="url(#filter0_d_11_63)">
<path d="M48.6143 50.7892C47.366 52.0915 45.3335 52.1016 44.0733 50.8114L39.8131 46.4511L44.3326 41.7354L48.5926 46.096C49.852 47.3861 49.8616 49.4866 48.6143 50.7892Z" fill="#E66032"/>
<path d="M37.5328 44.1114L42.0517 39.3959L34.6375 31.8066L30.1187 36.5221L37.5328 44.1114Z" fill="#E66032"/>
<path d="M39.8131 46.4463L44.3322 41.7309L42.0504 39.3953L37.5316 44.1108L39.8131 46.4463Z" fill="#FBA109"/>
<path d="M19.5591 40.5896C29.809 40.5896 38.118 32.002 38.118 21.4085C38.118 10.8151 29.809 2.22748 19.5591 2.22748C9.30917 2.22748 1 10.8151 1 21.4085C1 32.002 9.30917 40.5896 19.5591 40.5896Z" fill="#FBA109"/>
<path d="M39.4196 6.05769L43.433 6.0378L43.4253 4.37883L39.4119 4.39873L39.4196 6.05769Z" fill="#E66032"/>
<path d="M35.4057 6.07869L37.8139 6.06674L37.8062 4.40778L35.398 4.41972L35.4057 6.07869Z" fill="#E66032"/>
<path d="M45.1543 30.9187L49.1676 30.8988L49.1599 29.24L45.1466 29.2599L45.1543 30.9187Z" fill="#E66032"/>
<path d="M41.1406 30.938L43.5489 30.9262L43.5412 29.2672L41.1329 29.2792L41.1406 30.938Z" fill="#E66032"/>
<path d="M5.0763 43.5615L9.08972 43.5416L9.08201 41.8825L5.0686 41.9024L5.0763 43.5615Z" fill="#E66032"/>
<path d="M1.06239 43.5818L3.47063 43.5698L3.46291 41.9107L1.05469 41.9227L1.06239 43.5818Z" fill="#E66032"/>
<path d="M25.9715 48.4355L29.9848 48.4155L29.9771 46.7567L25.9638 46.7766L25.9715 48.4355Z" fill="#E66032"/>
<path d="M21.957 48.4566L24.3652 48.4446L24.3575 46.7857L21.9493 46.7976L21.957 48.4566Z" fill="#E66032"/>
</g>
<path d="M19.5595 34.966C26.804 34.966 32.6768 28.8963 32.6768 21.4091C32.6768 13.9217 26.804 7.8521 19.5595 7.8521C12.315 7.8521 6.4422 13.9217 6.4422 21.4091C6.4422 28.8963 12.315 34.966 19.5595 34.966Z" fill="white"/>
<path d="M29.7332 21.9355C29.7162 18.3071 25.1445 15.3883 19.5215 15.4162C13.8987 15.4441 9.35417 18.4081 9.37102 22.0367C9.38787 25.6651 13.9597 28.5839 19.5826 28.5561C25.2054 28.5281 29.75 25.5642 29.7332 21.9355Z" fill="#FEF0D9"/>
<path d="M19.6482 25.1972C21.4163 25.1972 22.8495 23.716 22.8495 21.8886C22.8495 20.0614 21.4163 18.58 19.6482 18.58C17.8801 18.58 16.4468 20.0614 16.4468 21.8886C16.4468 23.716 17.8801 25.1972 19.6482 25.1972Z" fill="#E66032"/>
<g filter="url(#filter1_di_11_63)">
<path d="M64.9787 4.61321C64.9787 3.42732 65.445 2.83437 66.3774 2.83437C67.1405 2.83437 68.0165 3.46967 69.0055 4.74027C69.9945 6.01088 70.489 7.09795 70.489 8.0015C70.489 8.90504 70.3053 10.1756 69.9381 11.8133C69.5706 13.451 69.1892 14.9475 68.7935 16.3028C68.4261 17.6581 67.861 19.5922 67.0981 22.1053C66.3352 24.5899 65.8123 26.3265 65.5297 27.3147C67.3664 23.5877 69.3023 20.5523 71.3368 18.2087C73.3997 15.8651 75.1233 14.6934 76.508 14.6934C77.384 14.6934 78.387 15.4698 79.5173 17.0228C80.6476 18.5475 81.2128 19.931 81.2128 21.1734C81.2128 22.3877 80.9868 24.1664 80.5348 26.51C80.0825 28.8535 79.2914 31.1123 78.1611 33.2866C77.0308 35.4607 75.8722 36.5477 74.6853 36.5477C73.7529 36.5477 73.2866 35.8842 73.2866 34.5572C73.2866 33.5971 73.5692 32.03 74.1343 29.8559C74.9538 26.6088 75.3635 24.6323 75.3635 23.9264C75.3635 23.2205 75.2504 22.8676 75.0245 22.8676C73.3854 22.8676 70.9835 25.5924 67.8187 31.0417C66.7448 32.9054 65.8407 34.2888 65.1058 35.1925C64.3994 36.096 63.7213 36.5477 63.0713 36.5477C62.4213 36.5477 61.6302 36.0254 60.6976 34.9807C59.7935 33.9359 59.3414 33.1312 59.3414 32.5665C59.3414 31.9736 59.4542 31.1123 59.6804 29.9829C59.9347 28.8535 60.302 27.2441 60.7825 25.1546C61.291 23.0652 62.1105 19.2817 63.2408 13.8039C64.3994 8.29797 64.9787 5.2344 64.9787 4.61321ZM98.4422 15.7522C98.6681 15.0463 99.1202 14.6934 99.7985 14.6934C100.477 14.6934 101.254 15.2722 102.13 16.4298C103.034 17.5875 103.486 18.5899 103.486 19.437C103.486 19.7475 102.836 21.8229 101.536 25.663C100.237 29.503 99.2333 32.5383 98.5269 34.769C98.1312 35.9548 97.4672 36.5477 96.5348 36.5477C95.9696 36.5477 95.4891 36.3501 95.0935 35.9548C94.7262 35.5312 94.5425 34.8819 94.5425 34.0065C94.5425 33.1312 94.712 31.8888 95.0513 30.2795C92.1406 34.4584 89.8235 36.5477 88.0997 36.5477C87.1955 36.5477 86.1076 35.969 84.836 34.8114C83.5644 33.6253 82.9286 32.4819 82.9286 31.3807C82.9286 28.6701 83.6915 25.2112 85.2174 21.0041C86.7716 16.7969 88.2269 14.6934 89.5832 14.6934C90.4027 14.6934 91.1234 15.0604 91.745 15.7945C92.395 16.5287 92.72 17.3334 92.72 18.2087C92.72 18.5475 92.3668 19.4934 91.6603 21.0465C89.5126 25.7054 88.4389 28.9946 88.4389 30.9148C88.4389 31.0841 88.5095 31.1689 88.6508 31.1689C89.0747 31.1689 89.8658 30.5054 91.0245 29.1782C92.2113 27.823 93.5253 25.9029 94.9664 23.4181C96.4357 20.9053 97.5945 18.3499 98.4422 15.7522ZM110.155 2.83437C110.833 2.83437 111.709 3.45555 112.783 4.69792C113.857 5.94029 114.393 7.12619 114.393 8.25562C114.393 9.38505 114.224 11.4039 113.885 14.3122C113.546 17.1922 113.193 19.4934 112.825 21.2158C110.48 31.4371 108.841 36.5477 107.908 36.5477C107.287 36.5477 106.509 36.0536 105.577 35.0653C104.673 34.0489 104.221 33.216 104.221 32.5665C104.221 32.5101 104.602 31.0417 105.365 28.1618C106.128 25.2818 106.891 21.5828 107.654 17.0652C108.445 12.5192 108.841 8.18503 108.841 4.06262C108.841 3.24378 109.279 2.83437 110.155 2.83437ZM130.315 15.7522C130.541 15.0463 130.993 14.6934 131.671 14.6934C132.349 14.6934 133.127 15.2722 134.003 16.4298C134.907 17.5875 135.359 18.5899 135.359 19.437C135.359 19.7475 134.709 21.8229 133.409 25.663C132.109 29.503 131.106 32.5383 130.4 34.769C130.004 35.9548 129.34 36.5477 128.408 36.5477C127.842 36.5477 127.362 36.3501 126.966 35.9548C126.599 35.5312 126.415 34.8819 126.415 34.0065C126.415 33.1312 126.585 31.8888 126.924 30.2795C124.013 34.4584 121.696 36.5477 119.973 36.5477C119.068 36.5477 117.98 35.969 116.709 34.8114C115.437 33.6253 114.801 32.4819 114.801 31.3807C114.801 28.6701 115.564 25.2112 117.09 21.0041C118.644 16.7969 120.1 14.6934 121.456 14.6934C122.276 14.6934 122.996 15.0604 123.618 15.7945C124.268 16.5287 124.593 17.3334 124.593 18.2087C124.593 18.5475 124.24 19.4934 123.533 21.0465C121.386 25.7054 120.312 28.9946 120.312 30.9148C120.312 31.0841 120.382 31.1689 120.524 31.1689C120.947 31.1689 121.739 30.5054 122.897 29.1782C124.084 27.823 125.398 25.9029 126.839 23.4181C128.309 20.9053 129.467 18.3499 130.315 15.7522ZM164.577 14.6934C165.68 14.6934 166.598 15.4275 167.333 16.8957C168.067 18.364 168.435 19.7053 168.435 20.9193C168.435 22.1335 168.195 23.9406 167.714 26.3407C167.262 28.7123 166.527 31.0135 165.51 33.2442C164.521 35.4467 163.447 36.5477 162.289 36.5477C161.356 36.5477 160.89 35.9124 160.89 34.6418C160.89 33.3712 161.257 31.2959 161.992 28.4159C162.726 25.5358 163.094 23.6441 163.094 22.7406C163.094 21.8369 162.953 21.3852 162.67 21.3852C162.077 21.3852 161.37 22.0347 160.551 23.3335C159.731 24.6323 158.742 26.3688 157.584 28.5429C156.453 30.7172 155.747 32.1148 155.464 32.7359C155.182 33.3572 154.942 33.8513 154.744 34.2183C154.574 34.5854 154.376 34.9665 154.15 35.3619C153.246 36.8584 152.045 36.8584 150.547 35.3619C149.784 34.5996 149.403 33.9077 149.403 33.2866C149.403 33.1736 149.629 32.1006 150.081 30.0677C150.562 28.0064 150.802 25.663 150.802 23.037C150.802 21.9357 150.675 21.3852 150.42 21.3852C150.081 21.3852 149.686 21.724 149.233 22.4017C148.781 23.0794 148.089 24.3076 147.156 26.0865C146.224 27.8652 145.419 29.3336 144.74 30.4912C142.367 34.529 140.558 36.5477 139.315 36.5477C138.693 36.5477 137.916 36.0254 136.984 34.9807C136.079 33.9359 135.627 33.1454 135.627 32.6089C135.627 32.0442 135.938 30.7172 136.56 28.6277C137.21 26.51 137.619 24.2652 137.789 21.8935C137.987 19.5217 138.156 17.6722 138.298 16.3451C138.467 15.0181 138.806 14.3545 139.315 14.3545C140.389 14.3545 141.42 14.8063 142.409 15.7098C143.426 16.5851 143.935 17.3899 143.935 18.124C143.935 19.7899 143.328 22.6982 142.112 26.8488C144.09 22.1335 145.758 18.9428 147.114 17.2769C148.555 15.5545 149.94 14.6934 151.268 14.6934C152.003 14.6934 152.907 15.371 153.981 16.7263C155.083 18.0816 155.634 19.3522 155.634 20.5381C155.634 21.6958 155.62 22.7122 155.591 23.5877C156.467 21.3852 157.796 19.3522 159.576 17.4887C161.356 15.6251 163.023 14.6934 164.577 14.6934Z" fill="#C93434"/>
</g>
<g filter="url(#filter2_d_11_63)">
<path d="M63.5546 46.7003H63.3841L62.1907 43.8042C62.1402 43.6906 62.0896 43.5581 62.0391 43.4067C62.0391 43.4108 62.035 43.4341 62.0265 43.4761C62.0224 43.5181 62.016 43.5749 62.0076 43.6465C61.9993 43.7137 61.9908 43.7705 61.9823 43.8168L61.5087 46.9149H61.2245L61.8939 42.7947H62.0644L63.3399 45.817C63.441 46.0694 63.4915 46.2019 63.4915 46.2145C63.5211 46.1261 63.5779 45.9958 63.662 45.8233L65.0828 42.7947H65.2533L65.8784 46.9149H65.5753L65.127 43.8042C65.0976 43.5982 65.0828 43.4613 65.0828 43.3941L64.8996 43.8105L63.5546 46.7003ZM67.1656 45.4952L66.5783 46.9149H66.2816L67.9991 42.7947H68.1696L69.8998 46.9149H69.5778L68.9842 45.4952H67.1656ZM68.0686 43.2616C68.0054 43.4509 67.9486 43.6086 67.8981 43.7348L67.2666 45.2491H68.8832L68.258 43.7411C68.1611 43.5055 68.098 43.3458 68.0686 43.2616ZM73.2191 42.8199L71.47 44.7948C72.1605 45.6318 72.6319 46.1618 72.8845 46.3848C73.1414 46.6078 73.3959 46.734 73.6485 46.7634L73.6422 46.959C73.4066 46.9549 73.215 46.9212 73.0676 46.8581C72.9204 46.7908 72.7897 46.7025 72.6761 46.5931C72.5624 46.4836 72.3183 46.2167 71.9436 45.7917C71.5732 45.3627 71.2954 45.0346 71.1101 44.8074L72.8718 42.8199H73.2191ZM71.0217 42.8199V46.9149H70.7312V42.8199H71.0217ZM74.3078 46.9149V42.8199H74.5983V46.9149H74.3078ZM76.1148 46.9149V42.7947H76.2537L78.9437 45.8864C79.0404 45.9958 79.1288 46.105 79.2089 46.2145C79.293 46.3196 79.3372 46.3744 79.3415 46.3785C79.3331 46.2776 79.3289 46.0798 79.3289 45.7854V42.8199H79.6194V46.9401H79.4805L76.7399 43.7979L76.3926 43.3751C76.4009 43.4593 76.4053 43.6569 76.4053 43.9683V46.9149H76.1148ZM82.8456 43.0155C82.3783 43.0155 81.9846 43.1943 81.6647 43.5518C81.349 43.9052 81.1911 44.3405 81.1911 44.8579C81.1911 45.3753 81.3701 45.8148 81.7279 46.1766C82.0856 46.5341 82.5067 46.7129 82.9908 46.7129C83.4792 46.7129 83.8581 46.6562 84.1274 46.5426V44.8579H84.4179V46.6751C84.0895 46.877 83.6244 46.9779 83.0224 46.9779C82.4203 46.9779 81.9132 46.7739 81.5005 46.3659C81.0879 45.958 80.8817 45.4573 80.8817 44.8642C80.8817 44.267 81.067 43.7663 81.4374 43.3625C81.8121 42.9587 82.294 42.7568 82.8834 42.7568C83.3592 42.7568 83.8243 42.8304 84.279 42.9776L84.2032 43.2174C83.7653 43.0827 83.3128 43.0155 82.8456 43.0155ZM89.2209 46.9149H88.9368V45.451L87.3897 42.8199H87.737L88.9305 44.8516C89.0232 45.0367 89.0757 45.1355 89.0883 45.1482C89.1136 45.0935 89.1663 44.9967 89.2462 44.8579L90.4397 42.8199H90.768L89.2209 45.4636V46.9149ZM93.3126 46.9779C92.7275 46.9779 92.2372 46.7739 91.8413 46.3659C91.4457 45.958 91.2477 45.4595 91.2477 44.8705C91.2477 44.2774 91.4457 43.7768 91.8413 43.3688C92.2372 42.9609 92.7275 42.7568 93.3126 42.7568C93.8979 42.7568 94.3883 42.9609 94.7839 43.3688C95.1798 43.7768 95.3775 44.2774 95.3775 44.8705C95.3775 45.4595 95.1798 45.958 94.7839 46.3659C94.3883 46.7739 93.8979 46.9779 93.3126 46.9779ZM93.3126 43.0155C92.8074 43.0155 92.3865 43.1943 92.0497 43.5518C91.7172 43.9093 91.5508 44.349 91.5508 44.8705C91.5508 45.3879 91.7172 45.8255 92.0497 46.1829C92.3865 46.5363 92.8074 46.7129 93.3126 46.7129C93.8221 46.7129 94.243 46.5363 94.5755 46.1829C94.9082 45.8255 95.0744 45.3879 95.0744 44.8705C95.0744 44.349 94.9082 43.9093 94.5755 43.5518C94.243 43.1943 93.8221 43.0155 93.3126 43.0155ZM99.5607 46.4921C99.2829 46.8161 98.8598 46.9779 98.2915 46.9779C97.7232 46.9779 97.3001 46.8161 97.0222 46.4921C96.7444 46.1681 96.6055 45.7202 96.6055 45.1482V42.8199H96.8959V45.1482C96.8959 46.1956 97.3611 46.7193 98.2915 46.7193C99.2217 46.7193 99.687 46.1956 99.687 45.1482V42.8199H99.9775V45.1482C99.9775 45.7202 99.8386 46.1681 99.5607 46.4921ZM101.453 46.9149V42.8388C101.815 42.8095 102.123 42.7947 102.375 42.7947C102.762 42.7947 103.082 42.8956 103.335 43.0975C103.588 43.2953 103.714 43.5792 103.714 43.9493C103.714 44.1976 103.642 44.4267 103.499 44.6371C103.356 44.8475 103.194 45.0178 103.013 45.1482C103.514 45.8128 103.823 46.2103 103.941 46.3407C104.181 46.5889 104.442 46.7297 104.724 46.7634L104.718 46.959C104.482 46.9549 104.291 46.9212 104.143 46.8581C103.996 46.7908 103.849 46.6792 103.701 46.5237C103.558 46.3681 103.24 45.9495 102.748 45.268C102.407 45.268 102.072 45.2576 101.744 45.2365V46.9149H101.453ZM102.59 45.0283C102.754 45.0283 102.931 44.9188 103.12 44.7002C103.31 44.4815 103.405 44.2269 103.405 43.9367C103.405 43.6465 103.305 43.4256 103.108 43.2742C102.91 43.1228 102.653 43.047 102.337 43.047C102.169 43.047 101.971 43.0555 101.744 43.0723V44.9967C102.047 45.0178 102.329 45.0283 102.59 45.0283ZM107.571 46.9149V42.8199H109.484V43.0723H107.861V44.5614H109.326V44.8074H107.861V46.6498H109.547V46.9149H107.571ZM110.21 42.8199H110.564L111.657 44.5929L112.799 42.8199H113.115L111.802 44.8264L113.122 46.9149H112.774L111.6 45.0346L110.375 46.9149H110.053L111.454 44.7948L110.21 42.8199ZM113.978 46.9149V42.8451C114.293 42.8114 114.626 42.7947 114.975 42.7947C115.329 42.7947 115.628 42.8893 115.872 43.0786C116.116 43.2637 116.238 43.5455 116.238 43.9241C116.238 44.3027 116.072 44.614 115.74 44.8579C115.407 45.0977 115.013 45.2176 114.559 45.2176C114.538 45.2176 114.514 45.2176 114.489 45.2176V45.0157C114.506 45.0157 114.521 45.0157 114.533 45.0157C114.908 45.0157 115.234 44.9169 115.512 44.7191C115.79 44.5213 115.929 44.2648 115.929 43.9493C115.929 43.6338 115.83 43.4045 115.632 43.2616C115.438 43.1186 115.182 43.047 114.862 43.047C114.693 43.047 114.496 43.0555 114.268 43.0723V46.9149H113.978ZM117.314 46.9149V42.8199H117.604V46.6498H119.486V46.9149H117.314ZM121.907 46.9779C121.322 46.9779 120.832 46.7739 120.436 46.3659C120.04 45.958 119.842 45.4595 119.842 44.8705C119.842 44.2774 120.04 43.7768 120.436 43.3688C120.832 42.9609 121.322 42.7568 121.907 42.7568C122.492 42.7568 122.983 42.9609 123.379 43.3688C123.774 43.7768 123.972 44.2774 123.972 44.8705C123.972 45.4595 123.774 45.958 123.379 46.3659C122.983 46.7739 122.492 46.9779 121.907 46.9779ZM121.907 43.0155C121.402 43.0155 120.981 43.1943 120.644 43.5518C120.312 43.9093 120.146 44.349 120.146 44.8705C120.146 45.3879 120.312 45.8255 120.644 46.1829C120.981 46.5363 121.402 46.7129 121.907 46.7129C122.417 46.7129 122.838 46.5363 123.17 46.1829C123.503 45.8255 123.669 45.3879 123.669 44.8705C123.669 44.349 123.503 43.9093 123.17 43.5518C122.838 43.1943 122.417 43.0155 121.907 43.0155ZM125.238 46.9149V42.8388C125.6 42.8095 125.907 42.7947 126.16 42.7947C126.547 42.7947 126.867 42.8956 127.12 43.0975C127.372 43.2953 127.498 43.5792 127.498 43.9493C127.498 44.1976 127.427 44.4267 127.284 44.6371C127.141 44.8475 126.979 45.0178 126.798 45.1482C127.299 45.8128 127.608 46.2103 127.726 46.3407C127.966 46.5889 128.227 46.7297 128.509 46.7634L128.503 46.959C128.267 46.9549 128.075 46.9212 127.928 46.8581C127.78 46.7908 127.633 46.6792 127.486 46.5237C127.343 46.3681 127.025 45.9495 126.532 45.268C126.191 45.268 125.857 45.2576 125.528 45.2365V46.9149H125.238ZM126.374 45.0283C126.539 45.0283 126.715 44.9188 126.905 44.7002C127.094 44.4815 127.189 44.2269 127.189 43.9367C127.189 43.6465 127.09 43.4256 126.892 43.2742C126.694 43.1228 126.438 43.047 126.122 43.047C125.954 43.047 125.756 43.0555 125.528 43.0723V44.9967C125.831 45.0178 126.113 45.0283 126.374 45.0283ZM129.08 46.9149V42.8199H130.993V43.0723H129.37V44.5614H130.835V44.8074H129.37V46.6498H131.056V46.9149H129.08ZM134.494 46.9149V42.8199H136.407V43.0723H134.784V44.5614H136.249V44.8074H134.784V46.6498H136.47V46.9149H134.494ZM137.835 45.4952L137.248 46.9149H136.951L138.668 42.7947H138.839L140.569 46.9149H140.247L139.654 45.4952H137.835ZM138.738 43.2616C138.675 43.4509 138.618 43.6086 138.567 43.7348L137.936 45.2491H139.552L138.927 43.7411C138.83 43.5055 138.767 43.3458 138.738 43.2616ZM142.228 42.9966C142 42.9966 141.815 43.0512 141.672 43.1606C141.529 43.2701 141.457 43.4235 141.457 43.6212C141.457 43.8484 141.552 44.0524 141.741 44.2333C141.876 44.3636 142.049 44.5024 142.259 44.6497C142.474 44.7926 142.621 44.8958 142.701 44.9589C142.781 45.022 142.878 45.1081 142.992 45.2176C143.198 45.4236 143.301 45.6614 143.301 45.9305C143.301 46.2797 143.183 46.5448 142.948 46.7256C142.716 46.9022 142.39 46.9906 141.969 46.9906C141.552 46.9906 141.203 46.8811 140.921 46.6625L141.072 46.4416C141.358 46.6351 141.662 46.7319 141.981 46.7319C142.302 46.7319 142.55 46.6646 142.727 46.53C142.908 46.3953 142.998 46.206 142.998 45.9621C142.998 45.7517 142.908 45.5583 142.727 45.3816C142.6 45.2554 142.43 45.1188 142.215 44.9715C142.005 44.8242 141.857 44.7191 141.773 44.656C141.689 44.5888 141.59 44.5004 141.476 44.391C141.262 44.1765 141.154 43.9282 141.154 43.6465C141.154 43.3647 141.253 43.1439 141.451 42.984C141.653 42.824 141.931 42.7442 142.285 42.7442C142.638 42.7442 142.956 42.8136 143.238 42.9524L143.131 43.1859C142.87 43.0597 142.569 42.9966 142.228 42.9966ZM145.615 46.9149H145.33V45.451L143.783 42.8199H144.131L145.324 44.8516C145.417 45.0367 145.469 45.1355 145.482 45.1482C145.507 45.0935 145.56 44.9967 145.64 44.8579L146.833 42.8199H147.162L145.615 45.4636V46.9149Z" fill="#A36E05"/>
</g>
<defs>
<filter id="filter0_d_11_63" x="0.7" y="1.92748" width="50.5435" height="51.545" filterUnits="userSpaceOnUse" color-interpolation-filters="sRGB">
<feFlood flood-opacity="0" result="BackgroundImageFix"/>
<feColorMatrix in="SourceAlpha" type="matrix" values="0 0 0 0 0 0 0 0 0 0 0 0 0 0 0 0 0 0 127 0" result="hardAlpha"/>
<feOffset dx="0.7" dy="0.7"/>
<feGaussianBlur stdDeviation="0.5"/>
<feComposite in2="hardAlpha" operator="out"/>
<feColorMatrix type="matrix" values="0 0 0 0 0 0 0 0 0 0 0 0 0 0 0 0 0 0 0.25 0"/>
<feBlend mode="normal" in2="BackgroundImageFix" result="effect1_dropShadow_11_63"/>
<feBlend mode="normal" in="SourceGraphic" in2="effect1_dropShadow_11_63" result="shape"/>
</filter>
<filter id="filter1_di_11_63" x="56.9414" y="0.434366" width="115.093" height="39.7133" filterUnits="userSpaceOnUse" color-interpolation-filters="sRGB">
<feFlood flood-opacity="0" result="BackgroundImageFix"/>
<feColorMatrix in="SourceAlpha" type="matrix" values="0 0 0 0 0 0 0 0 0 0 0 0 0 0 0 0 0 0 127 0" result="hardAlpha"/>
<feOffset dx="0.6" dy="0.6"/>
<feGaussianBlur stdDeviation="1.5"/>
<feComposite in2="hardAlpha" operator="out"/>
<feColorMatrix type="matrix" values="0 0 0 0 0 0 0 0 0 0 0 0 0 0 0 0 0 0 0.25 0"/>
<feBlend mode="normal" in2="BackgroundImageFix" result="effect1_dropShadow_11_63"/>
<feBlend mode="normal" in="SourceGraphic" in2="effect1_dropShadow_11_63" result="shape"/>
<feColorMatrix in="SourceAlpha" type="matrix" values="0 0 0 0 0 0 0 0 0 0 0 0 0 0 0 0 0 0 127 0" result="hardAlpha"/>
<feOffset dx="1" dy="1"/>
<feGaussianBlur stdDeviation="1"/>
<feComposite in2="hardAlpha" operator="arithmetic" k2="-1" k3="1"/>
<feColorMatrix type="matrix" values="0 0 0 0 0 0 0 0 0 0 0 0 0 0 0 0 0 0 0.25 0"/>
<feBlend mode="normal" in2="shape" result="effect2_innerShadow_11_63"/>
</filter>
<filter id="filter2_d_11_63" x="60.9245" y="42.4442" width="87.9372" height="6.24638" filterUnits="userSpaceOnUse" color-interpolation-filters="sRGB">
<feFlood flood-opacity="0" result="BackgroundImageFix"/>
<feColorMatrix in="SourceAlpha" type="matrix" values="0 0 0 0 0 0 0 0 0 0 0 0 0 0 0 0 0 0 127 0" result="hardAlpha"/>
<feOffset dx="0.7" dy="0.7"/>
<feGaussianBlur stdDeviation="0.5"/>
<feComposite in2="hardAlpha" operator="out"/>
<feColorMatrix type="matrix" values="0 0 0 0 0 0 0 0 0 0 0 0 0 0 0 0 0 0 0.25 0"/>
<feBlend mode="normal" in2="BackgroundImageFix" result="effect1_dropShadow_11_63"/>
<feBlend mode="normal" in="SourceGraphic" in2="effect1_dropShadow_11_63" result="shape"/>
</filter>
</defs>
</svg>
