<svg width="31" height="31" viewBox="0 0 31 31" fill="none" xmlns="http://www.w3.org/2000/svg">
<circle cx="15.4" cy="15.5" r="15" fill="#25D366"/>
<path fill-rule="evenodd" clip-rule="evenodd" d="M19.3222 17.1914C19.1108 17.0856 18.0744 16.5757 17.8814 16.5047C17.6885 16.4344 17.548 16.3996 17.4068 16.6112C17.2664 16.8214 16.8627 17.2972 16.74 17.4378C16.6166 17.5791 16.4938 17.5961 16.2831 17.491C16.0724 17.3845 15.3928 17.1623 14.5877 16.4437C13.9613 15.8841 13.5378 15.1933 13.415 14.9817C13.2923 14.7708 13.4016 14.6565 13.5073 14.5514C13.6023 14.4569 13.718 14.305 13.8237 14.1821C13.9294 14.0586 13.9641 13.9705 14.0343 13.8292C14.1053 13.6886 14.0698 13.5658 14.0166 13.46C13.9641 13.3542 13.5427 12.3154 13.3668 11.8929C13.1958 11.4818 13.022 11.5379 12.8929 11.5308C12.7695 11.5251 12.629 11.5237 12.4886 11.5237C12.3481 11.5237 12.1197 11.5762 11.9267 11.7878C11.7331 11.9987 11.1889 12.5092 11.1889 13.5481C11.1889 14.5862 11.9437 15.5895 12.0494 15.7308C12.1551 15.8714 13.5356 18.003 15.6504 18.9168C16.154 19.1341 16.5463 19.264 16.8521 19.3606C17.3572 19.5218 17.8169 19.4991 18.1801 19.4444C18.5844 19.384 19.4272 18.9338 19.6031 18.4411C19.7784 17.9483 19.7783 17.5258 19.7259 17.4378C19.6734 17.3497 19.5329 17.2972 19.3215 17.1914H19.3222ZM15.4758 22.4479H15.473C14.217 22.4482 12.984 22.1102 11.9033 21.4695L11.6479 21.3175L8.99335 22.0148L9.70204 19.4245L9.53533 19.1589C8.83313 18.0401 8.46151 16.7453 8.46343 15.424C8.46485 11.5542 11.6103 8.40581 15.4787 8.40581C17.3515 8.40581 19.1122 9.13717 20.436 10.4636C21.0889 11.1144 21.6064 11.8883 21.9585 12.7406C22.3107 13.593 22.4905 14.5067 22.4875 15.429C22.4861 19.2988 19.3407 22.4479 15.4758 22.4479ZM21.4433 9.45599C20.6617 8.66848 19.7317 8.04407 18.7072 7.61893C17.6827 7.19379 16.5842 6.97638 15.4751 6.97931C10.8257 6.97931 7.04038 10.7675 7.03896 15.4233C7.0368 16.905 7.42514 18.3611 8.16477 19.6446L6.96802 24.0207L11.4401 22.8463C12.6772 23.5209 14.0635 23.8744 15.4723 23.8744H15.4758C20.1252 23.8744 23.9106 20.0863 23.912 15.4297C23.9154 14.3201 23.699 13.2208 23.2753 12.1954C22.8515 11.17 22.2289 10.239 21.4433 9.45599Z" fill="white"/>
</svg>
