<svg width="30" height="31" viewBox="0 0 30 31" fill="none" xmlns="http://www.w3.org/2000/svg">
<circle cx="15" cy="15.5" r="15" fill="white"/>
<path d="M17.5047 15.2391L13.9953 13.6016C13.6891 13.4594 13.4375 13.6187 13.4375 13.9578V17.0422C13.4375 17.3813 13.6891 17.5406 13.9953 17.3984L17.5031 15.7609C17.8109 15.6172 17.8109 15.3828 17.5047 15.2391ZM15 0.5C6.71562 0.5 0 7.21562 0 15.5C0 23.7844 6.71562 30.5 15 30.5C23.2844 30.5 30 23.7844 30 15.5C30 7.21562 23.2844 0.5 15 0.5ZM15 21.5937C7.32188 21.5937 7.1875 20.9016 7.1875 15.5C7.1875 10.0984 7.32188 9.40625 15 9.40625C22.6781 9.40625 22.8125 10.0984 22.8125 15.5C22.8125 20.9016 22.6781 21.5937 15 21.5937Z" fill="#FF0000"/>
</svg>
