<svg width="49" height="49" viewBox="0 0 49 49" fill="none" xmlns="http://www.w3.org/2000/svg">
<circle cx="24.5" cy="24.5" r="24.5" fill="#C93434"/>
<path d="M26.3504 28.1342L28.5516 25.7854L34.7742 32.4254L32.573 34.7742L26.3504 28.1342ZM30.2079 22.4067C32.2108 22.4067 33.8402 20.668 33.8402 18.5307C33.8402 17.8884 33.6741 17.2904 33.4147 16.7589L30.6126 19.7489L29.0663 18.0988L31.8684 15.1088C31.3702 14.832 30.8098 14.6548 30.2079 14.6548C28.2049 14.6548 26.5756 16.3934 26.5756 18.5307C26.5756 18.9848 26.6586 19.4167 26.7935 19.8153L24.8736 21.864L23.0263 19.8928L23.7632 19.1066L22.2999 17.5451L24.5 15.1974C23.9162 14.5753 23.1249 14.2258 22.2999 14.2258C21.4748 14.2258 20.6835 14.5753 20.0997 15.1974L16.4259 19.1177L17.8892 20.6791H14.9626L14.2258 21.4654L17.8996 25.3856L18.6364 24.5993V21.4654L20.0997 23.0268L20.8366 22.2406L22.6838 24.2117L14.9938 32.4177L17.1939 34.7654L29.004 22.1741C29.3776 22.3181 29.7824 22.4067 30.2079 22.4067Z" fill="white"/>
</svg>
