<svg width="34" height="34" viewBox="0 0 34 34" fill="none" xmlns="http://www.w3.org/2000/svg">
<path fill-rule="evenodd" clip-rule="evenodd" d="M9.49704 25.339C15.1442 24.514 19.0324 24.585 24.6869 25.3679C25.0964 25.4273 25.4706 25.6328 25.7404 25.9466C26.0102 26.2603 26.1573 26.6611 26.1546 27.0748C26.1546 27.4708 26.0185 27.8553 25.7726 28.1556C25.3441 28.6792 24.9051 29.1941 24.4559 29.7H26.6348C26.7717 29.5366 26.9095 29.37 27.0489 29.2009C27.5383 28.6008 27.8052 27.85 27.8046 27.0757C27.8046 25.405 26.5853 23.9654 24.913 23.7344C19.1248 22.9333 15.079 22.8566 9.25861 23.7072C7.56901 23.9539 6.35461 25.4158 6.35461 27.0979C6.35461 27.8446 6.59799 28.5829 7.05916 29.1811C7.19529 29.3576 7.32976 29.5309 7.46341 29.7008H9.58944C9.17151 29.2005 8.76388 28.6916 8.36679 28.1746C8.13081 27.8651 8.00351 27.4863 8.00461 27.0971C8.00461 26.2086 8.64316 25.4636 9.49704 25.339ZM17.0796 17.325C17.7297 17.325 18.3733 17.197 18.9739 16.9482C19.5745 16.6994 20.1201 16.3348 20.5798 15.8752C21.0394 15.4155 21.4041 14.8698 21.6528 14.2693C21.9016 13.6687 22.0296 13.025 22.0296 12.375C22.0296 11.725 21.9016 11.0813 21.6528 10.4807C21.4041 9.88015 21.0394 9.33447 20.5798 8.87482C20.1201 8.41517 19.5745 8.05055 18.9739 7.80179C18.3733 7.55303 17.7297 7.42499 17.0796 7.42499C15.7668 7.42499 14.5077 7.94651 13.5794 8.87482C12.6511 9.80312 12.1296 11.0622 12.1296 12.375C12.1296 13.6878 12.6511 14.9469 13.5794 15.8752C14.5077 16.8035 15.7668 17.325 17.0796 17.325V17.325ZM17.0796 18.975C18.83 18.975 20.5088 18.2796 21.7465 17.0419C22.9843 15.8042 23.6796 14.1254 23.6796 12.375C23.6796 10.6246 22.9843 8.94583 21.7465 7.70809C20.5088 6.47035 18.83 5.77499 17.0796 5.77499C15.3292 5.77499 13.6504 6.47035 12.4127 7.70809C11.175 8.94583 10.4796 10.6246 10.4796 12.375C10.4796 14.1254 11.175 15.8042 12.4127 17.0419C13.6504 18.2796 15.3292 18.975 17.0796 18.975V18.975Z" fill="#606060"/>
<path fill-rule="evenodd" clip-rule="evenodd" d="M17.2898 31.85C25.4911 31.85 32.1398 25.2013 32.1398 17C32.1398 8.79867 25.4911 2.15 17.2898 2.15C9.08847 2.15 2.43979 8.79867 2.43979 17C2.43979 25.2013 9.08847 31.85 17.2898 31.85ZM17.2898 33.5C26.4027 33.5 33.7898 26.1129 33.7898 17C33.7898 7.88705 26.4027 0.5 17.2898 0.5C8.17685 0.5 0.789795 7.88705 0.789795 17C0.789795 26.1129 8.17685 33.5 17.2898 33.5Z" fill="#606060"/>
</svg>
