<svg width="24" height="29" viewBox="0 0 24 29" fill="none" xmlns="http://www.w3.org/2000/svg">
<path d="M5.14286 9.0625V7.25C5.14286 3.2523 8.21898 0 12 0C15.7811 0 18.8571 3.2523 18.8571 7.25V9.0625H24V24.4688C24 26.9713 22.0812 29 19.7143 29H4.28571C1.91877 29 0 26.9713 0 24.4688V9.0625H5.14286ZM15.4286 7.25C15.4286 5.25115 13.8905 3.625 12 3.625C10.1095 3.625 8.57143 5.25115 8.57143 7.25V9.0625H15.4286V7.25ZM6.85714 14.0469C7.56723 14.0469 8.14286 13.4383 8.14286 12.6875C8.14286 11.9367 7.56723 11.3281 6.85714 11.3281C6.14705 11.3281 5.57143 11.9367 5.57143 12.6875C5.57143 13.4383 6.14705 14.0469 6.85714 14.0469ZM17.1429 14.0469C17.8529 14.0469 18.4286 13.4383 18.4286 12.6875C18.4286 11.9367 17.8529 11.3281 17.1429 11.3281C16.4328 11.3281 15.8571 11.9367 15.8571 12.6875C15.8571 13.4383 16.4328 14.0469 17.1429 14.0469Z" fill="black"/>
</svg>
