<svg width="15" height="17" viewBox="0 0 15 17" fill="none" xmlns="http://www.w3.org/2000/svg">
<path fill-rule="evenodd" clip-rule="evenodd" d="M3.75 12.1758H11.25C11.4986 12.1758 11.7371 12.2601 11.9129 12.4101C12.0887 12.5602 12.1875 12.7637 12.1875 12.9758C12.1875 13.188 12.0887 13.3915 11.9129 13.5415C11.7371 13.6915 11.4986 13.7758 11.25 13.7758H2.8125C2.56386 13.7758 2.3254 13.6915 2.14959 13.5415C1.97377 13.3915 1.875 13.188 1.875 12.9758V2.57583H0.9375C0.68886 2.57583 0.450403 2.49154 0.274588 2.34152C0.0987722 2.19149 0 1.988 0 1.77583C0 1.56366 0.0987722 1.36017 0.274588 1.21014C0.450403 1.06012 0.68886 0.97583 0.9375 0.97583H2.8125C3.06114 0.97583 3.2996 1.06012 3.47541 1.21014C3.65123 1.36017 3.75 1.56366 3.75 1.77583V3.37663L3.81844 3.37583H13.0566C14.13 3.37583 15 4.09183 15 4.97583C15 5.09263 14.9841 5.20863 14.9531 5.32303L13.8741 9.32303C13.6772 10.055 12.8878 10.5758 11.9766 10.5758H3.81844L3.75 10.575V12.1758ZM3.28125 16.9758C2.90829 16.9758 2.5506 16.8494 2.28688 16.6244C2.02316 16.3993 1.875 16.0941 1.875 15.7758C1.875 15.4576 2.02316 15.1523 2.28688 14.9273C2.5506 14.7023 2.90829 14.5758 3.28125 14.5758C3.65421 14.5758 4.0119 14.7023 4.27562 14.9273C4.53934 15.1523 4.6875 15.4576 4.6875 15.7758C4.6875 16.0941 4.53934 16.3993 4.27562 16.6244C4.0119 16.8494 3.65421 16.9758 3.28125 16.9758ZM11.7188 16.9758C11.3458 16.9758 10.9881 16.8494 10.7244 16.6244C10.4607 16.3993 10.3125 16.0941 10.3125 15.7758C10.3125 15.4576 10.4607 15.1523 10.7244 14.9273C10.9881 14.7023 11.3458 14.5758 11.7188 14.5758C12.0917 14.5758 12.4494 14.7023 12.7131 14.9273C12.9768 15.1523 13.125 15.4576 13.125 15.7758C13.125 16.0941 12.9768 16.3993 12.7131 16.6244C12.4494 16.8494 12.0917 16.9758 11.7188 16.9758ZM3.75 4.97583V8.97583H12.0291L13.125 4.97583H3.75Z" fill="#C93434"/>
</svg>
