<svg width="20" height="19" viewBox="0 0 20 19" fill="none" xmlns="http://www.w3.org/2000/svg">
<path d="M5.55556 11.6504H15.5556C16.1667 11.6504 16.6667 12.1269 16.6667 12.7092C16.6667 13.2916 16.1667 13.7681 15.5556 13.7681H4.44444C3.83333 13.7681 3.33333 13.2916 3.33333 12.7092V2.121H1.11111C0.5 2.121 0 1.64453 0 1.06218C0 0.479828 0.5 0.00335693 1.11111 0.00335693H4.44444C5.05556 0.00335693 5.55556 0.479828 5.55556 1.06218V3.17983H20L15.5556 10.5916H5.55556V11.6504ZM5 14.8269C5.92222 14.8269 6.66667 15.5363 6.66667 16.4151C6.66667 17.2939 5.92222 18.0034 5 18.0034C4.07778 18.0034 3.33333 17.2939 3.33333 16.4151C3.33333 15.5363 4.07778 14.8269 5 14.8269ZM15 14.8269C15.9222 14.8269 16.6667 15.5363 16.6667 16.4151C16.6667 17.2939 15.9222 18.0034 15 18.0034C14.0778 18.0034 13.3333 17.2939 13.3333 16.4151C13.3333 15.5363 14.0778 14.8269 15 14.8269Z" fill="white"/>
</svg>
