<svg width="20" height="20" viewBox="0 0 20 20" fill="none" xmlns="http://www.w3.org/2000/svg">
<path d="M13.7734 7.15625C13.7734 7.07031 13.7031 7 13.6172 7L12.3281 7.00586L10.3867 9.32031L8.44727 7.00781L7.15625 7.00195C7.07031 7.00195 7 7.07031 7 7.1582C7 7.19531 7.01367 7.23047 7.03711 7.25977L9.57813 10.2871L7.03711 13.3125C7.01351 13.3411 7.00041 13.377 7 13.4141C7 13.5 7.07031 13.5703 7.15625 13.5703L8.44727 13.5645L10.3867 11.25L12.3262 13.5625L13.6152 13.5684C13.7012 13.5684 13.7715 13.5 13.7715 13.4121C13.7715 13.375 13.7578 13.3398 13.7344 13.3105L11.1973 10.2852L13.7383 7.25781C13.7617 7.23047 13.7734 7.19336 13.7734 7.15625Z" fill="#A2A2A2"/>
<path d="M10 1.26953C5.16797 1.26953 1.25 5.1875 1.25 10.0195C1.25 14.8516 5.16797 18.7695 10 18.7695C14.832 18.7695 18.75 14.8516 18.75 10.0195C18.75 5.1875 14.832 1.26953 10 1.26953ZM10 17.2852C5.98828 17.2852 2.73438 14.0312 2.73438 10.0195C2.73438 6.00781 5.98828 2.75391 10 2.75391C14.0117 2.75391 17.2656 6.00781 17.2656 10.0195C17.2656 14.0312 14.0117 17.2852 10 17.2852Z" fill="#A2A2A2"/>
</svg>
