<svg width="50" height="49" viewBox="0 0 50 49" fill="none" xmlns="http://www.w3.org/2000/svg">
<circle cx="25" cy="24.5" r="24.5" fill="#C93434"/>
<path d="M15.322 17.672C15.322 17.1054 15.5427 16.5621 15.9355 16.1614C16.3283 15.7608 16.8611 15.5357 17.4167 15.5357H34.1742C34.7298 15.5357 35.2626 15.7608 35.6554 16.1614C36.0482 16.5621 36.2689 17.1054 36.2689 17.672V29.4217C36.2689 29.9883 36.0482 30.5317 35.6554 30.9323C35.2626 31.333 34.7298 31.5581 34.1742 31.5581H26.8428V33.6944H29.9848C30.2626 33.6944 30.529 33.8069 30.7254 34.0072C30.9218 34.2075 31.0322 34.4792 31.0322 34.7625C31.0322 35.0458 30.9218 35.3175 30.7254 35.5178C30.529 35.7181 30.2626 35.8307 29.9848 35.8307H21.6061C21.3283 35.8307 21.0619 35.7181 20.8655 35.5178C20.669 35.3175 20.5587 35.0458 20.5587 34.7625C20.5587 34.4792 20.669 34.2075 20.8655 34.0072C21.0619 33.8069 21.3283 33.6944 21.6061 33.6944H24.7481V31.5581H17.4167C16.8611 31.5581 16.3283 31.333 15.9355 30.9323C15.5427 30.5317 15.322 29.9883 15.322 29.4217V17.672ZM34.1742 29.4217V17.672H17.4167V29.4217H34.1742Z" fill="white"/>
</svg>
