<svg width="49" height="49" viewBox="0 0 49 49" fill="none" xmlns="http://www.w3.org/2000/svg">
<circle cx="24.5" cy="24.5" r="24.5" fill="#C93434"/>
<path d="M31.883 25.9875L31.9061 30.9906C31.9061 31.0781 31.8995 31.1594 31.8896 31.2437V31.75C31.8896 32.4406 31.2991 33 30.5701 33H30.0423C30.006 33 29.9697 32.9719 29.9334 32.9969C29.8873 32.9719 29.8411 33 29.7949 33H27.9311C27.2021 33 26.6116 32.4406 26.6116 31.75V29C26.6116 28.4469 26.1399 28 25.556 28H23.4448C22.8609 28 22.3892 28.4469 22.3892 29V31.75C22.3892 32.4406 21.7987 33 21.0697 33H19.2257C19.1762 33 19.1267 32.9969 19.0773 32.9937C19.0377 32.9969 18.9981 33 18.9585 33H18.4307C17.702 33 17.1112 32.4406 17.1112 31.75V28.25C17.1112 28.2219 17.1122 28.1906 17.1142 28.1625V25.9875H16.0572C15.4625 25.9875 15 25.5469 15 24.9844C15 24.7031 15.0991 24.4531 15.3302 24.2344L23.7879 17.2505C24.0188 17.0313 24.2827 17 24.5136 17C24.7445 17 25.0084 17.0626 25.2096 17.2192L28.7228 20.1469V19C28.7228 18.4478 29.1945 18 29.7784 18H30.834C31.4179 18 31.8896 18.4478 31.8896 19V22.7812L33.6313 24.2344C33.8952 24.4531 34.0305 24.7031 33.9942 24.9844C33.9942 25.5469 33.4994 25.9875 32.9386 25.9875H31.883Z" fill="white"/>
</svg>
