<svg width="41" height="40" viewBox="0 0 41 40" fill="none" xmlns="http://www.w3.org/2000/svg">
<path d="M19.0848 28.8C13.3248 28.8 8.68475 24.16 8.68475 18.4C8.68475 12.64 13.3248 8 19.0848 8C24.8448 8 29.4848 12.64 29.4848 18.4C29.4848 24.16 24.8448 28.8 19.0848 28.8ZM19.0848 9.6C14.2048 9.6 10.2848 13.52 10.2848 18.4C10.2848 23.28 14.2048 27.2 19.0848 27.2C23.9648 27.2 27.8848 23.28 27.8848 18.4C27.8848 13.52 23.9648 9.6 19.0848 9.6Z" fill="#8F8F8F"/>
<path d="M26.8304 25.0136L34.0144 32.1976L32.8832 33.3288L25.6992 26.1448L26.8304 25.0136Z" fill="#8F8F8F"/>
</svg>
