<svg width="31" height="31" viewBox="0 0 31 31" fill="none" xmlns="http://www.w3.org/2000/svg">
<circle cx="15.6" cy="15.5" r="15" fill="white"/>
<path d="M15.6 0.5C7.31649 0.5 0.599976 7.21652 0.599976 15.5C0.599976 23.7835 7.31649 30.5 15.6 30.5C23.8835 30.5 30.6 23.7835 30.6 15.5C30.6 7.21652 23.8835 0.5 15.6 0.5ZM22.8087 11.8069C22.8187 11.9643 22.8187 12.1283 22.8187 12.2891C22.8187 17.2042 19.0754 22.8661 12.235 22.8661C10.1256 22.8661 8.17029 22.2533 6.52297 21.1987C6.82431 21.2321 7.11225 21.2455 7.42029 21.2455C9.16136 21.2455 10.7618 20.6562 12.0375 19.6585C10.4035 19.625 9.03078 18.5536 8.56203 17.0804C9.13457 17.1641 9.6502 17.1641 10.2395 17.0134C9.39817 16.8425 8.64197 16.3855 8.09936 15.7203C7.55675 15.055 7.2612 14.2223 7.26292 13.3638V13.317C7.75511 13.5949 8.33435 13.7656 8.94038 13.7891C8.43092 13.4495 8.01312 12.9895 7.72401 12.4499C7.4349 11.9102 7.28342 11.3075 7.28301 10.6953C7.28301 10.0022 7.46382 9.36942 7.78859 8.82031C8.72242 9.96988 9.88769 10.9101 11.2087 11.5798C12.5297 12.2495 13.9768 12.6338 15.456 12.7076C14.9303 10.1797 16.8187 8.13393 19.0888 8.13393C20.1602 8.13393 21.1245 8.58259 21.8042 9.3058C22.6446 9.14844 23.4482 8.8337 24.1647 8.41183C23.8868 9.27232 23.3042 9.99888 22.5308 10.4576C23.2808 10.3772 24.004 10.1696 24.6736 9.87835C24.1681 10.6217 23.5352 11.2812 22.8087 11.8069Z" fill="#00ACEE"/>
</svg>
