<svg width="49" height="49" viewBox="0 0 49 49" fill="none" xmlns="http://www.w3.org/2000/svg">
<circle cx="24.5" cy="24.5" r="24.5" fill="#C93434"/>
<path d="M35.0453 20.8777H32.4577L31.7385 18.9941C30.9994 17.0575 29.2356 15.8065 27.2444 15.8065H21.7553C19.7646 15.8065 18.0003 17.0575 17.2608 18.9941L16.5416 20.8777H13.9544C13.6169 20.8777 13.3692 21.21 13.4513 21.5528L13.7106 22.6395C13.7681 22.8813 13.9756 23.0511 14.2137 23.0511H15.0812C14.5007 23.5822 14.1269 24.3542 14.1269 25.2245V27.3979C14.1269 28.1278 14.3931 28.7866 14.8184 29.2964V31.7446C14.8184 32.5447 15.4377 33.1936 16.2015 33.1936H17.5845C18.3482 33.1936 18.9676 32.5447 18.9676 31.7446V30.2957H30.0321V31.7446C30.0321 32.5447 30.6515 33.1936 31.4152 33.1936H32.7983C33.562 33.1936 34.1813 32.5447 34.1813 31.7446V29.2964C34.6066 28.787 34.8729 28.1282 34.8729 27.3979V25.2245C34.8729 24.3542 34.499 23.5822 33.919 23.0511H34.7864C35.0246 23.0511 35.232 22.8813 35.2895 22.6395L35.5488 21.5528C35.6305 21.21 35.3829 20.8777 35.0453 20.8777ZM19.829 20.0704C20.1441 19.2454 20.9069 18.7043 21.7553 18.7043H27.2444C28.0928 18.7043 28.8557 19.2454 29.1707 20.0704L30.0321 22.3266H18.9676L19.829 20.0704ZM17.5845 27.3888C16.7547 27.3888 16.2015 26.811 16.2015 25.9444C16.2015 25.0778 16.7547 24.5 17.5845 24.5C18.4144 24.5 19.6591 25.8 19.6591 26.6666C19.6591 27.5332 18.4144 27.3888 17.5845 27.3888ZM31.4152 27.3888C30.5854 27.3888 29.3406 27.5332 29.3406 26.6666C29.3406 25.8 30.5854 24.5 31.4152 24.5C32.245 24.5 32.7983 25.0778 32.7983 25.9444C32.7983 26.811 32.245 27.3888 31.4152 27.3888Z" fill="white"/>
</svg>
