<svg width="49" height="49" viewBox="0 0 49 49" fill="none" xmlns="http://www.w3.org/2000/svg">
<circle cx="24.5" cy="24.5" r="24.5" fill="#C93434"/>
<path d="M35 21.0315C35 21.2685 34.9248 21.5072 34.7699 21.7067L33.1306 23.819C32.9232 24.0862 32.6181 24.2251 32.31 24.2251C32.0799 24.2251 31.8483 24.1476 31.6547 23.988L29.75 22.4196V31.3548C29.75 32.2634 29.0449 33 28.175 33H20.825C19.9555 33 19.25 32.2631 19.25 31.3548V22.4196L17.3173 23.9893C17.1516 24.147 16.92 24.195 16.69 24.195C16.3819 24.195 16.0767 24.0559 15.8693 23.7888L14.2301 21.7067C14.0812 21.516 13.9999 21.2775 14 21.0315C14 20.714 14.1349 20.3994 14.3941 20.1856L18.8238 16.5319C19.2434 16.1882 19.7652 16 20.2705 16H21.4025C21.6552 17.5547 22.9414 18.7419 24.5 18.7419C26.0586 18.7419 27.3458 17.5547 27.5972 16H28.6997C29.2362 16 29.7569 16.1882 30.1759 16.5336L34.6056 20.1873C34.8655 20.4008 35 20.7161 35 21.0315Z" fill="white"/>
</svg>
