<svg width="49" height="49" viewBox="0 0 49 49" fill="none" xmlns="http://www.w3.org/2000/svg">
<circle cx="24.5" cy="24.5" r="24.5" fill="#C93434"/>
<path d="M32.6855 14.2258C33.0035 14.2259 33.3105 14.3285 33.5481 14.5143C33.7858 14.7002 33.9376 14.9562 33.9748 15.2339L33.9839 15.3675V33.6338C33.9835 33.9248 33.8568 34.2047 33.6296 34.4163C33.4024 34.6279 33.0919 34.7552 32.7616 34.7723C32.4312 34.7893 32.1059 34.6948 31.8521 34.508C31.5984 34.3213 31.4353 34.0564 31.3962 33.7674L31.3871 33.6338V27.9256H30.0887C29.7707 27.9256 29.4638 27.8229 29.2261 27.6371C28.9885 27.4513 28.8366 27.1952 28.7994 26.9175L28.7903 26.784V19.9341C28.7903 17.411 30.7379 14.2258 32.6855 14.2258ZM24.8952 14.2258C25.2132 14.2259 25.5201 14.3285 25.7578 14.5143C25.9954 14.7002 26.1473 14.9562 26.1845 15.2339L26.1936 15.3675V21.0757C26.1934 22.0882 25.8108 23.072 25.1057 23.8725C24.4007 24.673 23.4132 25.245 22.2984 25.4985V33.6338C22.298 33.9248 22.1713 34.2047 21.9441 34.4163C21.717 34.6279 21.4065 34.7552 21.0761 34.7723C20.7457 34.7893 20.4204 34.6948 20.1667 34.508C19.9129 34.3213 19.7498 34.0564 19.7107 33.7674L19.7016 33.6338V25.4985C18.631 25.2551 17.6767 24.7178 16.9773 23.9647C16.2779 23.2115 15.87 22.2819 15.8129 21.3109L15.8065 21.0757V15.3675C15.8068 15.0765 15.9335 14.7966 16.1607 14.585C16.3879 14.3734 16.6984 14.2461 17.0288 14.2291C17.3591 14.212 17.6844 14.3065 17.9382 14.4933C18.192 14.68 18.3551 14.945 18.3941 15.2339L18.4032 15.3675V21.0757C18.4032 21.4765 18.5232 21.8702 18.7512 22.2173C18.9791 22.5644 19.3069 22.8527 19.7016 23.053V15.3675C19.702 15.0765 19.8287 14.7966 20.0559 14.585C20.2831 14.3734 20.5936 14.2461 20.9239 14.2291C21.2543 14.212 21.5796 14.3065 21.8334 14.4933C22.0871 14.68 22.2502 14.945 22.2893 15.2339L22.2984 15.3675L22.2997 23.053C22.662 22.8689 22.9684 22.6105 23.1926 22.2998C23.4169 21.9891 23.5524 21.6353 23.5877 21.2687L23.5968 21.0757V15.3675C23.5968 15.0647 23.7336 14.7743 23.9771 14.5602C24.2206 14.3461 24.5508 14.2258 24.8952 14.2258Z" fill="white"/>
</svg>
