<svg width="49" height="49" viewBox="0 0 49 49" fill="none" xmlns="http://www.w3.org/2000/svg">
<circle cx="24.5" cy="24.5" r="24.5" fill="#C93434"/>
<path d="M21.7546 21.9465C21.7546 21.694 21.6792 21.4471 21.5379 21.2372C21.3966 21.0272 21.1958 20.8636 20.9609 20.7669C20.7259 20.6703 20.4674 20.645 20.2179 20.6943C19.9685 20.7435 19.7394 20.8651 19.5596 21.0437C19.3798 21.2223 19.2573 21.4498 19.2077 21.6974C19.1581 21.9451 19.1835 22.2018 19.2809 22.4351C19.3782 22.6684 19.543 22.8678 19.7544 23.0081C19.9659 23.1484 20.2145 23.2233 20.4688 23.2233C20.8098 23.2233 21.1369 23.0887 21.378 22.8493C21.6191 22.6099 21.7546 22.2851 21.7546 21.9465ZM27.5408 27.1302C27.3948 27.0452 27.2333 26.9897 27.0657 26.9668C26.8981 26.944 26.7276 26.9542 26.5639 26.9969C26.4003 27.0396 26.2467 27.1139 26.112 27.2157C25.9774 27.3174 25.8643 27.4445 25.7792 27.5898C25.6332 27.8446 25.4219 28.0565 25.1667 28.2039C24.9115 28.3513 24.6215 28.429 24.3262 28.429C24.031 28.429 23.741 28.3513 23.4858 28.2039C23.2306 28.0565 23.0192 27.8446 22.8733 27.5898C22.7882 27.4445 22.6751 27.3174 22.5404 27.2157C22.4058 27.1139 22.2522 27.0396 22.0886 26.9969C21.9249 26.9542 21.7544 26.944 21.5868 26.9668C21.4191 26.9897 21.2577 27.0452 21.1117 27.1302C20.8176 27.2986 20.6025 27.5757 20.5134 27.901C20.4243 28.2263 20.4683 28.5734 20.6359 28.8665C21.0089 29.5111 21.5464 30.0465 22.1944 30.4188C22.8423 30.7912 23.5776 30.9872 24.3262 30.9872C25.0748 30.9872 25.8102 30.7912 26.4581 30.4188C27.106 30.0465 27.6436 29.5111 28.0165 28.8665C28.1842 28.5734 28.2282 28.2263 28.1391 27.901C28.05 27.5757 27.8349 27.2986 27.5408 27.1302V27.1302ZM28.1837 20.6697C27.9294 20.6697 27.6808 20.7446 27.4693 20.8849C27.2579 21.0252 27.0931 21.2246 26.9957 21.4579C26.8984 21.6912 26.873 21.9479 26.9226 22.1956C26.9722 22.4433 27.0946 22.6708 27.2745 22.8493C27.4543 23.0279 27.6834 23.1495 27.9328 23.1987C28.1823 23.248 28.4408 23.2227 28.6757 23.1261C28.9107 23.0294 29.1115 22.8658 29.2528 22.6558C29.3941 22.4459 29.4695 22.199 29.4695 21.9465C29.4695 21.6079 29.334 21.2831 29.0929 21.0437C28.8518 20.8043 28.5247 20.6697 28.1837 20.6697ZM24.3262 11.7324C21.7831 11.7324 19.2971 12.4812 17.1826 13.8842C15.0681 15.2871 13.4201 17.2811 12.4469 19.6141C11.4736 21.947 11.219 24.5142 11.7152 26.9909C12.2113 29.4675 13.4359 31.7425 15.2342 33.5281C17.0324 35.3137 19.3235 36.5297 21.8177 37.0223C24.312 37.5149 26.8973 37.2621 29.2468 36.2958C31.5964 35.3294 33.6045 33.6929 35.0174 31.5933C36.4303 29.4937 37.1844 27.0252 37.1844 24.5C37.1844 22.8234 36.8518 21.1631 36.2056 19.6141C35.5594 18.065 34.6123 16.6575 33.4183 15.472C32.2243 14.2864 30.8069 13.3459 29.2468 12.7043C27.6868 12.0627 26.0148 11.7324 24.3262 11.7324V11.7324ZM24.3262 34.7141C21.9312 34.7244 19.6076 33.9044 17.7561 32.3957C15.9047 30.887 14.6415 28.784 14.1844 26.4495C13.7273 24.115 14.1049 21.6953 15.2521 19.6076C16.3994 17.52 18.2443 15.8953 20.4688 15.0137C20.4556 15.1965 20.4556 15.3799 20.4688 15.5627C20.4688 16.5786 20.8752 17.5528 21.5986 18.2711C22.322 18.9894 23.3032 19.393 24.3262 19.393C24.6673 19.393 24.9943 19.2585 25.2354 19.019C25.4766 18.7796 25.6121 18.4548 25.6121 18.1162C25.6121 17.7776 25.4766 17.4529 25.2354 17.2134C24.9943 16.974 24.6673 16.8395 24.3262 16.8395C23.9852 16.8395 23.6582 16.7049 23.417 16.4655C23.1759 16.2261 23.0404 15.9013 23.0404 15.5627C23.0404 15.2241 23.1759 14.8993 23.417 14.6599C23.6582 14.4205 23.9852 14.2859 24.3262 14.2859C27.0544 14.2859 29.6708 15.3621 31.5999 17.2776C33.529 19.1931 34.6128 21.7911 34.6128 24.5C34.6128 27.209 33.529 29.807 31.5999 31.7225C29.6708 33.638 27.0544 34.7141 24.3262 34.7141V34.7141Z" fill="white"/>
</svg>
