<svg width="31" height="31" viewBox="0 0 31 31" fill="none" xmlns="http://www.w3.org/2000/svg">
<circle cx="15.2" cy="15.5" r="15" fill="#0E76A8"/>
<path fill-rule="evenodd" clip-rule="evenodd" d="M9.00244 10.338C9.00244 10.0633 9.11155 9.79992 9.30575 9.60571C9.49996 9.4115 9.76336 9.3024 10.038 9.3024H20.361C20.4971 9.30218 20.6319 9.3288 20.7577 9.38075C20.8835 9.4327 20.9978 9.50895 21.0941 9.60515C21.1904 9.70134 21.2668 9.81557 21.3189 9.94132C21.371 10.0671 21.3977 10.2019 21.3976 10.338V20.6609C21.3978 20.7971 21.3711 20.9319 21.3191 21.0577C21.2671 21.1835 21.1908 21.2978 21.0945 21.3941C20.9983 21.4904 20.884 21.5668 20.7582 21.6188C20.6325 21.6709 20.4977 21.6977 20.3615 21.6976H10.038C9.90197 21.6976 9.76726 21.6708 9.64158 21.6187C9.5159 21.5666 9.40172 21.4903 9.30555 21.3941C9.20938 21.2979 9.13312 21.1837 9.08111 21.0579C9.0291 20.9322 9.00237 20.7975 9.00244 20.6615V10.338ZM13.9087 14.0284H15.5871V14.8712C15.8294 14.3867 16.4491 13.9506 17.3805 13.9506C19.1659 13.9506 19.5891 14.9157 19.5891 16.6866V19.9668H17.7822V17.09C17.7822 16.0815 17.5399 15.5124 16.9247 15.5124C16.0711 15.5124 15.7161 16.126 15.7161 17.09V19.9668H13.9087V14.0284ZM10.8099 19.8896H12.6173V13.9506H10.8099V19.889V19.8896ZM12.8759 12.0136C12.8794 12.1683 12.8518 12.3222 12.7949 12.4662C12.7381 12.6101 12.653 12.7413 12.5448 12.852C12.4365 12.9626 12.3073 13.0505 12.1646 13.1105C12.0219 13.1706 11.8687 13.2015 11.7139 13.2015C11.5591 13.2015 11.4059 13.1706 11.2632 13.1105C11.1205 13.0505 10.9912 12.9626 10.883 12.852C10.7748 12.7413 10.6897 12.6101 10.6328 12.4662C10.576 12.3222 10.5484 12.1683 10.5518 12.0136C10.5585 11.7098 10.6839 11.4207 10.9011 11.2083C11.1183 10.9958 11.4101 10.8768 11.7139 10.8768C12.0177 10.8768 12.3095 10.9958 12.5267 11.2083C12.7439 11.4207 12.8693 11.7098 12.8759 12.0136Z" fill="white"/>
</svg>
