<svg width="49" height="49" viewBox="0 0 49 49" fill="none" xmlns="http://www.w3.org/2000/svg">
<circle cx="24.5" cy="24.5" r="24.5" fill="#C93434"/>
<path d="M12.6452 29.2097H15.4078V19.7535H12.6452V29.2097ZM25.5058 30.7858L21.5183 29.7771L17.5308 28.7684C17.3073 28.7091 17.1072 28.5655 16.9618 28.3601C16.8165 28.1547 16.7342 27.8992 16.7279 27.6337V21.3295C16.725 21.0583 16.8072 20.7951 16.9593 20.5888C17.1057 20.3725 17.3126 20.222 17.5445 20.1632L24.0496 19.2334L30.5684 18.1774L30.7725 19.0443L30.9767 19.9111C30.9772 20.2065 30.906 20.4961 30.7713 20.7469C30.6365 20.9977 30.4436 21.1995 30.2146 21.3295L27.4927 22.1175L24.7709 22.9056L26.9756 23.93L29.1803 24.9544L32.2831 23.9457L35.3044 22.9056C35.4354 22.86 35.5732 22.8463 35.709 22.8653C35.8448 22.8843 35.9758 22.9355 36.0937 23.0159C36.2145 23.0944 36.3202 23.2006 36.4044 23.3279C36.4887 23.4552 36.5496 23.6011 36.5836 23.7566L36.8422 24.9544L37.1144 26.168C37.147 26.317 37.1538 26.472 37.1344 26.6241C37.1151 26.7762 37.07 26.9224 37.0017 27.0542C36.9334 27.186 36.8432 27.3009 36.7365 27.3922C36.6297 27.4836 36.5084 27.5496 36.3795 27.5864L31.4394 29.1625L26.4993 30.7385C26.3393 30.7878 26.1748 30.8143 26.0093 30.8173C25.841 30.8301 25.672 30.8196 25.5058 30.7858Z" fill="white"/>
</svg>
