<svg width="30" height="31" viewBox="0 0 30 31" fill="none" xmlns="http://www.w3.org/2000/svg">
<circle cx="15" cy="15.5" r="15" fill="#229ED9"/>
<path fill-rule="evenodd" clip-rule="evenodd" d="M22.3943 15.5C22.3943 19.5836 19.0835 22.8944 15 22.8944C10.9164 22.8944 7.60559 19.5836 7.60559 15.5C7.60559 11.4165 10.9164 8.10565 15 8.10565C19.0835 8.10565 22.3943 11.4165 22.3943 15.5ZM15.2649 13.5645C14.5458 13.8634 13.1082 14.4827 10.9528 15.4218C10.6028 15.561 10.4191 15.6972 10.4025 15.8303C10.3742 16.0558 10.6564 16.1446 11.0397 16.2647C11.092 16.2814 11.1463 16.298 11.2017 16.3165C11.5794 16.4391 12.0872 16.5827 12.3509 16.5882C12.5906 16.5932 12.8581 16.4946 13.1532 16.2924C15.1669 14.9325 16.2065 14.2454 16.2718 14.2307C16.318 14.2202 16.3821 14.2066 16.4252 14.2454C16.4684 14.2836 16.464 14.3564 16.4597 14.3761C16.4314 14.495 15.3259 15.5234 14.7529 16.0558C14.5742 16.2216 14.4478 16.3393 14.422 16.3664C14.364 16.4262 14.3049 16.4835 14.2482 16.5383C13.897 16.876 13.6345 17.1299 14.263 17.5439C14.5649 17.743 14.8065 17.9075 15.0474 18.0714C15.3105 18.2507 15.573 18.4294 15.9132 18.6525C15.9994 18.7092 16.082 18.7677 16.1627 18.825C16.469 19.0438 16.7444 19.2397 17.0846 19.2089C17.2817 19.1904 17.4863 19.0049 17.5898 18.451C17.8345 17.141 18.3163 14.304 18.4279 13.1344C18.4346 13.0373 18.4305 12.9398 18.4155 12.8436C18.4066 12.7659 18.3687 12.6944 18.3096 12.6433C18.2214 12.5712 18.0846 12.5558 18.023 12.5571C17.7451 12.562 17.3187 12.7105 15.2649 13.5645Z" fill="white"/>
</svg>
